<?xml version="1.0" encoding="UTF-8" standalone="no"?>
<!-- Created with Inkscape (http://www.inkscape.org/) -->

<svg
   xmlns:dc="http://purl.org/dc/elements/1.1/"
   xmlns:cc="http://creativecommons.org/ns#"
   xmlns:rdf="http://www.w3.org/1999/02/22-rdf-syntax-ns#"
   xmlns:svg="http://www.w3.org/2000/svg"
   xmlns="http://www.w3.org/2000/svg"
   xmlns:sodipodi="http://sodipodi.sourceforge.net/DTD/sodipodi-0.dtd"
   xmlns:inkscape="http://www.inkscape.org/namespaces/inkscape"
   width="680.86938"
   height="189.86942"
   id="svg2"
   version="1.1"
   inkscape:version="0.48.4 r9939"
   sodipodi:docname="drawing.svg">
  <defs
     id="defs4" />
  <sodipodi:namedview
     id="base"
     pagecolor="#ffffff"
     bordercolor="#666666"
     borderopacity="1.0"
     inkscape:pageopacity="0.0"
     inkscape:pageshadow="2"
     inkscape:zoom="1"
     inkscape:cx="300.18411"
     inkscape:cy="211.88742"
     inkscape:document-units="px"
     inkscape:current-layer="layer1"
     showgrid="false"
     showguides="false"
     inkscape:guide-bbox="true"
     inkscape:window-width="1535"
     inkscape:window-height="876"
     inkscape:window-x="65"
     inkscape:window-y="24"
     inkscape:window-maximized="1"
     fit-margin-top="0"
     fit-margin-left="0"
     fit-margin-right="0"
     fit-margin-bottom="0"
     showborder="false">
    <sodipodi:guide
       orientation="0,1"
       position="270.12046,41.364813"
       id="guide2993" />
  </sodipodi:namedview>
  <metadata
     id="metadata7">
    <rdf:RDF>
      <cc:Work
         rdf:about="">
        <dc:format>image/svg+xml</dc:format>
        <dc:type
           rdf:resource="http://purl.org/dc/dcmitype/StillImage" />
        <dc:title></dc:title>
      </cc:Work>
    </rdf:RDF>
  </metadata>
  <g
     inkscape:label="Layer 1"
     inkscape:groupmode="layer"
     id="layer1"
     transform="translate(-16.762856,-90.179695)">
    <g
       id="g3803">
      <rect
         y="90.179695"
         x="16.762856"
         height="189.86942"
         width="680.86938"
         id="rect3801"
         style="opacity:0.5;fill:#ffffff;stroke:none" />
      <g
         id="g3824">
        <g
           style="font-size:102.20157623px;font-style:normal;font-variant:normal;font-weight:300;font-stretch:normal;line-height:125%;letter-spacing:-6.18319559px;word-spacing:0px;fill:#333333;fill-opacity:1;stroke:none;font-family:Open Sans;-inkscape-font-specification:Open Sans Light"
           id="text2985">
          <path
             d="m 113.9025,215.56014 c -8.35048,-1e-5 -14.438657,-3.12726 -18.264544,-9.38179 l -0.349322,0 0.149709,4.19186 c 0.133061,2.46189 0.199599,5.15666 0.199613,8.08431 l 0,20.65988 -4.940408,0 0,-78.79701 4.191861,0 0.948159,7.73498 0.299419,0 c 3.726081,-5.85525 9.681183,-8.78289 17.865313,-8.78295 7.31909,6e-5 12.89159,2.41204 16.71754,7.23595 3.85913,4.79075 5.78871,11.77718 5.78877,20.95931 -6e-5,8.91604 -2.02945,15.83593 -6.08818,20.7597 -4.02557,4.8905 -9.53154,7.33575 -16.51793,7.33576 m -0.0998,-4.39148 c 5.55584,0 9.8475,-2.06266 12.875,-6.18799 3.06068,-4.12531 4.59104,-9.89743 4.59109,-17.31638 -5e-5,-15.93568 -5.75554,-23.90354 -17.26648,-23.90359 -6.32109,5e-5 -10.96207,1.74666 -13.92297,5.23983 -2.960931,3.45999 -4.441388,9.11567 -4.441374,16.96706 l 0,1.5969 c -1.4e-5,8.48355 1.413906,14.53845 4.241764,18.16473 2.86109,3.6263 7.50208,5.43944 13.92297,5.43944"
             id="path3004"
             inkscape:connector-curvature="0" />
          <path
             d="m 178.3322,214.56207 -1.24757,-8.58333 -0.39923,0 c -2.72807,3.49322 -5.53928,5.97174 -8.43363,7.43556 -2.86114,1.43056 -6.25454,2.14583 -10.18023,2.14584 -5.32302,-1e-5 -9.46497,-1.36402 -12.42588,-4.09206 -2.96092,-2.72803 -4.44138,-6.50403 -4.44137,-11.32801 -10e-6,-5.28971 2.19573,-9.39839 6.58721,-12.32607 4.42472,-2.92762 10.81232,-4.47461 19.16279,-4.64099 l 10.32995,-0.29941 0,-3.59303 c -4e-5,-5.15661 -1.04801,-9.04905 -3.1439,-11.67733 -2.09596,-2.62818 -5.47274,-3.94229 -10.13033,-3.94234 -5.0236,5e-5 -10.23016,1.39733 -15.61967,4.19186 l -1.84642,-4.29167 c 5.95509,-2.79452 11.84365,-4.19181 17.6657,-4.19186 5.95507,5e-5 10.39645,1.54705 13.32413,4.64099 2.96088,3.09404 4.44133,7.918 4.44138,14.4719 l 0,36.07995 -3.64293,0 m -19.96124,-3.49322 c 5.78873,1e-5 10.34654,-1.64679 13.67345,-4.9404 3.3601,-3.32687 5.04017,-7.93458 5.04022,-13.82317 l 0,-5.33963 -9.4816,0.39923 c -7.61856,0.36598 -13.058,1.56365 -16.31831,3.59302 -3.22708,1.99615 -4.84062,5.1234 -4.84061,9.38179 -1e-5,3.39342 1.03132,6.03828 3.094,7.93459 2.09591,1.86305 5.04019,2.79458 8.83285,2.79457"
             id="path3006"
             inkscape:connector-curvature="0" />
          <path
             d="m 214.66646,159.26942 c 2.29551,6e-5 4.7574,0.23294 7.38566,0.69865 l -0.94816,4.74079 c -2.26231,-0.56552 -4.60775,-0.8483 -7.03634,-0.84835 -4.62438,5e-5 -8.41701,1.9629 -11.3779,5.88857 -2.96094,3.92575 -4.4414,8.88279 -4.44138,14.87112 l 0,29.94187 -4.94041,0 0,-54.24468 4.19186,0 0.49903,9.78101 0.34932,0 c 2.22899,-3.9922 4.60771,-6.78677 7.13615,-8.38372 2.5284,-1.63012 5.58912,-2.4452 9.18217,-2.44526"
             id="path3008"
             inkscape:connector-curvature="0" />
          <path
             d="m 259.78367,214.56207 -1.24758,-8.58333 -0.39922,0 c -2.72807,3.49322 -5.53928,5.97174 -8.43363,7.43556 -2.86114,1.43056 -6.25455,2.14583 -10.18023,2.14584 -5.32302,-1e-5 -9.46497,-1.36402 -12.42588,-4.09206 -2.96092,-2.72803 -4.44138,-6.50403 -4.44137,-11.32801 -10e-6,-5.28971 2.19573,-9.39839 6.58721,-12.32607 4.42472,-2.92762 10.81232,-4.47461 19.16279,-4.64099 l 10.32995,-0.29941 0,-3.59303 c -4e-5,-5.15661 -1.04801,-9.04905 -3.1439,-11.67733 -2.09597,-2.62818 -5.47274,-3.94229 -10.13033,-3.94234 -5.0236,5e-5 -10.23016,1.39733 -15.61968,4.19186 l -1.84641,-4.29167 c 5.95509,-2.79452 11.84365,-4.19181 17.6657,-4.19186 5.95507,5e-5 10.39645,1.54705 13.32413,4.64099 2.96088,3.09404 4.44133,7.918 4.44138,14.4719 l 0,36.07995 -3.64293,0 m -19.96124,-3.49322 c 5.78873,1e-5 10.34654,-1.64679 13.67345,-4.9404 3.3601,-3.32687 5.04017,-7.93458 5.04021,-13.82317 l 0,-5.33963 -9.48159,0.39923 c -7.61856,0.36598 -13.058,1.56365 -16.31831,3.59302 -3.22708,1.99615 -4.84062,5.1234 -4.84061,9.38179 -1e-5,3.39342 1.03132,6.03828 3.094,7.93459 2.09591,1.86305 5.04019,2.79458 8.83285,2.79457"
             id="path3010"
             inkscape:connector-curvature="0" />
          <path
             d="m 342.52782,214.56207 0,-35.58092 c -8e-5,-5.28969 -1.03141,-9.14886 -3.09399,-11.57752 -2.06274,-2.42857 -5.22326,-3.64288 -9.4816,-3.64293 -5.55593,5e-5 -9.66462,1.53041 -12.32606,4.59109 -2.66155,3.06077 -3.9923,7.8681 -3.99225,14.422 l 0,31.78828 -5.04022,0 0,-37.07801 c -4e-5,-9.14886 -4.1919,-13.72331 -12.57558,-13.72336 -5.68898,5e-5 -9.83094,1.66349 -12.42588,4.99031 -2.59497,3.29365 -3.89245,8.58338 -3.89244,15.86919 l 0,29.94187 -4.94041,0 0,-54.24468 4.09206,0 1.04796,7.43556 0.29942,0 c 1.49708,-2.69472 3.62628,-4.77401 6.3876,-6.23789 2.76128,-1.49704 5.80537,-2.24558 9.13227,-2.24564 8.55003,6e-5 14.03936,3.21049 16.46803,9.6313 l 0.19961,0 c 1.76319,-3.09394 4.12527,-5.47265 7.08624,-7.13614 2.99413,-1.66338 6.38754,-2.4951 10.18024,-2.49516 5.92176,6e-5 10.36314,1.58032 13.32413,4.7408 2.96084,3.16058 4.44129,8.18415 4.44137,15.07074 l 0,35.48111 -4.8905,0"
             id="path3012"
             inkscape:connector-curvature="0" />
          <path
             d="m 380.7085,215.56014 c -7.88472,-1e-5 -14.03943,-2.42862 -18.46415,-7.28586 -4.39148,-4.85722 -6.58722,-11.66068 -6.58721,-20.41037 -1e-5,-8.64984 2.12919,-15.56973 6.3876,-20.7597 4.25838,-5.22314 9.99723,-7.83473 17.21657,-7.83479 6.38756,6e-5 11.42777,2.22906 15.12064,6.68702 3.69278,4.45806 5.5392,10.51296 5.53925,18.16473 l 0,3.99225 -39.07414,0 c 0.0665,7.45222 1.7965,13.14117 5.18992,17.06687 3.42666,3.92571 8.31717,5.88857 14.67152,5.88856 3.09396,1e-5 5.80536,-0.21624 8.13421,-0.64874 2.36204,-0.43248 5.33959,-1.36401 8.93265,-2.79457 l 0,4.49128 c -3.06077,1.33075 -5.88861,2.22901 -8.48353,2.69477 -2.59499,0.49903 -5.4561,0.74854 -8.58333,0.74855 m -1.44719,-51.89924 c -5.22322,5e-5 -9.41507,1.73002 -12.57559,5.18992 -3.16054,3.42672 -5.00695,8.38376 -5.53924,14.87113 l 33.53489,0 c -4e-5,-6.28776 -1.36406,-11.19489 -4.09205,-14.72142 -2.72808,-3.55971 -6.50408,-5.33958 -11.32801,-5.33963"
             id="path3014"
             inkscape:connector-curvature="0" />
          <path
             d="m 423.03112,211.16866 c 3.12724,0 5.85527,-0.26615 8.18411,-0.79845 l 0,3.99225 c -2.39537,0.79845 -5.15668,1.19767 -8.28391,1.19768 -4.79072,-1e-5 -8.33384,-1.28085 -10.62937,-3.84254 -2.26228,-2.56169 -3.39342,-6.58721 -3.39341,-12.07656 l 0,-35.03198 -8.0344,0 0,-2.89438 8.0344,-2.24564 2.49516,-12.27617 2.54506,0 0,13.12452 15.91909,0 0,4.29167 -15.91909,0 0,34.33334 c -2e-5,4.1586 0.73189,7.23596 2.19573,9.23207 1.46381,1.99613 3.75935,2.99419 6.88663,2.99419"
             id="path3016"
             inkscape:connector-curvature="0" />
          <path
             d="m 458.21761,159.26942 c 2.29551,6e-5 4.75739,0.23294 7.38566,0.69865 l -0.94816,4.74079 c -2.26231,-0.56552 -4.60775,-0.8483 -7.03634,-0.84835 -4.62438,5e-5 -8.41701,1.9629 -11.37791,5.88857 -2.96093,3.92575 -4.44139,8.88279 -4.44137,14.87112 l 0,29.94187 -4.94041,0 0,-54.24468 4.19186,0 0.49903,9.78101 0.34932,0 c 2.22899,-3.9922 4.6077,-6.78677 7.13615,-8.38372 2.5284,-1.63012 5.58912,-2.4452 9.18217,-2.44526"
             id="path3018"
             inkscape:connector-curvature="0" />
          <path
             d="m 475.33916,214.56207 -4.94041,0 0,-54.24468 4.94041,0 0,54.24468 m -5.63905,-69.31542 c -10e-6,-3.19373 1.04795,-4.79063 3.14389,-4.7907 1.03132,7e-5 1.82977,0.41593 2.39535,1.24758 0.59882,0.83179 0.89824,2.01283 0.89826,3.54312 -2e-5,1.49716 -0.29944,2.6782 -0.89826,3.54312 -0.56558,0.86505 -1.36403,1.29754 -2.39535,1.29748 -2.09594,6e-5 -3.1439,-1.61347 -3.14389,-4.8406"
             id="path3020"
             inkscape:connector-curvature="0" />
          <path
             d="m 509.02856,215.56014 c -7.75164,-1e-5 -13.82318,-2.44526 -18.21463,-7.33576 -4.39148,-4.8905 -6.58722,-11.71058 -6.58721,-20.46028 -10e-6,-8.98252 2.2789,-15.96895 6.83672,-20.95931 4.5578,-5.02352 10.79569,-7.53531 18.71367,-7.53537 4.69086,6e-5 9.18213,0.81514 13.47384,2.44526 l -1.34738,4.39147 c -4.69093,-1.56358 -8.76635,-2.3454 -12.22627,-2.34545 -6.65377,5e-5 -11.69398,2.06271 -15.12064,6.18799 -3.42669,4.0921 -5.14003,9.99729 -5.14002,17.7156 -10e-6,7.31915 1.71333,13.058 5.14002,17.21658 3.42666,4.12533 8.21736,6.18799 14.3721,6.18798 4.92374,1e-5 9.49818,-0.88161 13.72335,-2.64486 l 0,4.59109 c -3.45999,1.6967 -8.00116,2.54505 -13.62355,2.54506"
             id="path3022"
             inkscape:connector-curvature="0" />
        </g>
        <rect
           style="fill:#92a913;fill-opacity:1;fill-rule:evenodd;stroke:none"
           id="rect2995"
           width="91"
           height="58"
           x="534"
           y="159.36218" />
        <g
           style="font-size:21.66127205px;font-style:normal;font-variant:normal;font-weight:600;font-stretch:normal;text-align:end;line-height:125%;letter-spacing:-0.29999995px;word-spacing:0px;writing-mode:lr-tb;text-anchor:end;fill:#ffffff;fill-opacity:1;stroke:none;font-family:Open Sans;-inkscape-font-specification:Open Sans Semi-Bold"
           id="text2989">
          <path
             d="m 573.30143,209.84537 c 0,-0.47243 0.10576,-0.82852 0.3173,-1.06826 0.21859,-0.24679 0.52884,-0.37018 0.93076,-0.37019 0.40897,10e-6 0.72627,0.1234 0.95191,0.37019 0.23269,0.23974 0.34903,0.59583 0.34904,1.06826 -1e-5,0.45833 -0.11635,0.81088 -0.34904,1.05768 -0.23269,0.24679 -0.55,0.37018 -0.95191,0.37018 -0.35961,0 -0.65929,-0.10929 -0.89903,-0.32788 -0.23269,-0.22563 -0.34903,-0.5923 -0.34903,-1.09998"
             style="font-size:21.66127205px;font-style:normal;font-variant:normal;font-weight:normal;font-stretch:normal;text-align:end;line-height:125%;letter-spacing:-0.29999995px;writing-mode:lr-tb;text-anchor:end;font-family:Open Sans;-inkscape-font-specification:Open Sans"
             id="path3025"
             inkscape:connector-curvature="0" />
          <path
             d="m 589.52509,206.76752 c -10e-6,1.37499 -0.49712,2.45382 -1.49133,3.2365 -0.99423,0.78268 -2.36568,1.17402 -4.11437,1.17402 -1.7487,0 -3.18009,-0.27147 -4.29418,-0.81441 l 0,-2.39036 c 0.70512,0.33141 1.45254,0.59231 2.24228,0.78269 0.79678,0.19038 1.53716,0.28557 2.22113,0.28557 1.00126,0 1.73811,-0.19038 2.21055,-0.57115 0.47947,-0.38076 0.71921,-0.89197 0.71922,-1.53363 -10e-6,-0.57819 -0.2186,-1.06825 -0.65576,-1.47018 -0.43718,-0.40191 -1.33974,-0.87786 -2.70766,-1.42786 -1.41024,-0.57114 -2.40446,-1.22338 -2.98266,-1.95671 -0.5782,-0.73331 -0.8673,-1.61471 -0.86729,-2.6442 -10e-6,-1.29035 0.45832,-2.30572 1.37498,-3.04611 0.91665,-0.74036 2.14708,-1.11055 3.6913,-1.11057 1.48074,2e-5 2.95444,0.32437 4.4211,0.97307 l -0.80384,2.06247 c -1.37499,-0.57818 -2.6019,-0.86728 -3.68072,-0.86729 -0.81794,1e-5 -1.43845,0.17981 -1.86152,0.53941 -0.42307,0.35257 -0.63461,0.82148 -0.6346,1.40672 -1e-5,0.40192 0.0846,0.74743 0.25384,1.03652 0.16922,0.28206 0.44775,0.55 0.83557,0.80384 0.38781,0.25385 1.08587,0.58878 2.0942,1.00479 1.13524,0.47244 1.96728,0.91314 2.49612,1.3221 0.52883,0.40898 0.91665,0.87083 1.16345,1.38556 0.24678,0.51474 0.37018,1.12115 0.37019,1.81921"
             id="path3027"
             inkscape:connector-curvature="0" />
          <path
             d="m 602.19994,195.50324 2.62305,0 -5.41532,15.46327 -2.66535,0 -5.39417,-15.46327 2.60189,0 3.22593,9.6143 c 0.16922,0.45833 0.34902,1.05063 0.53941,1.7769 0.19038,0.71923 0.31377,1.25512 0.37019,1.60767 0.0917,-0.53588 0.23268,-1.15639 0.42307,-1.86151 0.19038,-0.70512 0.3455,-1.2269 0.46538,-1.56537 l 3.22592,-9.57199"
             id="path3029"
             inkscape:connector-curvature="0" />
          <path
             d="m 612.91039,202.57911 5.69031,0 0,7.76337 c -0.93077,0.3032 -1.82627,0.51826 -2.6865,0.64518 -0.85321,0.12692 -1.77691,0.19038 -2.77112,0.19038 -2.34101,0 -4.14611,-0.69101 -5.41532,-2.07305 -1.26922,-1.38908 -1.90383,-3.34579 -1.90382,-5.87012 -10e-6,-2.48906 0.71569,-4.43519 2.14708,-5.83839 1.43139,-1.41022 3.4022,-2.11534 5.91243,-2.11536 1.61471,2e-5 3.14482,0.31027 4.59033,0.93076 l -0.88845,2.10478 c -1.25513,-0.57818 -2.51024,-0.86728 -3.76534,-0.86729 -1.64999,1e-5 -2.95446,0.51827 -3.91341,1.55478 -0.95897,1.03654 -1.43845,2.45383 -1.43845,4.25187 0,1.88973 0.43012,3.32817 1.29037,4.31534 0.86729,0.98011 2.11183,1.47017 3.73361,1.47017 0.81793,0 1.69228,-0.10224 2.62304,-0.30673 l 0,-3.98745 -3.20476,0 0,-2.16824"
             id="path3031"
             inkscape:connector-curvature="0" />
        </g>
        <path
           id="path3768"
           style="fill:none;stroke:#333333;stroke-linecap:square;stroke-opacity:1"
           d="m 624.5,144.86218 -90,0 m 90,-3 0,6 m -90,0 0,-6"
           inkscape:connector-curvature="0"
           sodipodi:nodetypes="cccccc" />
      </g>
    </g>
  </g>
</svg>
